<?xml version="1.0" encoding="utf-8"?>
<!-- Generator: Adobe Illustrator 16.0.0, SVG Export Plug-In . SVG Version: 6.00 Build 0)  -->
<!DOCTYPE svg PUBLIC "-//W3C//DTD SVG 1.1//EN" "http://www.w3.org/Graphics/SVG/1.1/DTD/svg11.dtd">
<svg version="1.1" id="Layer_1" xmlns="http://www.w3.org/2000/svg" xmlns:xlink="http://www.w3.org/1999/xlink" x="0px" y="0px"
	 width="116.263px" height="133.147px" viewBox="0 0 116.263 133.147" enable-background="new 0 0 116.263 133.147"
	 xml:space="preserve">
<g>
	<g>
		<path fill="none" stroke="#767677" stroke-width="10" stroke-miterlimit="10" d="M98.92,94.309
			c3.261-1.073,6.996-0.313,9.591,2.281c3.669,3.67,3.669,9.619-0.001,13.289c-12.177,12.177-28.178,18.269-44.172,18.269
			c-16.001,0-31.994-6.089-44.174-18.269c-20.219-20.219-20.219-53.117,0-73.335c16.906-16.909,44.418-16.908,61.324-0.003
			c14.258,14.262,14.258,37.462,0.001,51.72c-3.669,3.67-9.62,3.67-13.288,0c-3.67-3.668-3.67-9.619,0-13.287
			c6.932-6.932,6.932-18.212,0-25.143c-2.178-2.176-4.664-3.857-7.32-5.045"/>
	</g>
	<g>
		<path fill="none" stroke="#767677" stroke-width="10" stroke-miterlimit="10" d="M47.158,23.857
			c-5.185,0.281-9.614-3.683-9.9-8.863c-0.287-5.184,3.682-9.615,8.863-9.901c15.9-0.878,31.198,4.49,43.064,15.114
			c11.867,10.625,18.885,25.235,19.764,41.14c1.508,27.3-19.476,50.734-46.773,52.243c-0.775,0.045-1.549,0.064-2.316,0.064
			C37.99,113.657,19.623,96.497,18.4,74.396c-1.066-19.334,13.793-35.932,33.127-37c5.198-0.28,9.613,3.683,9.9,8.863
			c0.287,5.184-3.684,9.614-8.863,9.901c-8.987,0.497-15.895,8.212-15.399,17.199c0.692,12.527,11.444,22.158,23.975,21.466
			c4.89-0.271,9.454-1.673,13.45-3.939"/>
	</g>
</g>
</svg>
