<?xml version="1.0" encoding="utf-8"?>
<!-- Generator: Adobe Illustrator 16.0.0, SVG Export Plug-In . SVG Version: 6.00 Build 0)  -->
<!DOCTYPE svg PUBLIC "-//W3C//DTD SVG 1.1//EN" "http://www.w3.org/Graphics/SVG/1.1/DTD/svg11.dtd" [
	<!ENTITY ns_flows "http://ns.adobe.com/Flows/1.0/">
	<!ENTITY ns_extend "http://ns.adobe.com/Extensibility/1.0/">
	<!ENTITY ns_ai "http://ns.adobe.com/AdobeIllustrator/10.0/">
	<!ENTITY ns_graphs "http://ns.adobe.com/Graphs/1.0/">
]>
<svg version="1.1" id="Layer_1" xmlns:x="&ns_extend;" xmlns:i="&ns_ai;" xmlns:graph="&ns_graphs;"
	 xmlns="http://www.w3.org/2000/svg" xmlns:xlink="http://www.w3.org/1999/xlink" xmlns:a="http://ns.adobe.com/AdobeSVGViewerExtensions/3.0/"
	 x="0px" y="0px" width="41px" height="48px" viewBox="0 0 41 48" enable-background="new 0 0 41 48" xml:space="preserve">
<g id="New_Symbol">
	<g>
		<path fill="#0099CC" d="M22.825,47.221c-6.096,0-12.189-2.319-16.829-6.96c-7.703-7.702-7.703-20.237,0-27.94
			c6.441-6.441,16.923-6.441,23.364,0c5.433,5.433,5.433,14.272,0,19.705c-1.398,1.397-3.665,1.397-5.063,0
			c-1.398-1.398-1.398-3.665,0-5.063c2.641-2.641,2.641-6.938,0-9.579c-3.65-3.65-9.589-3.65-13.24,0
			c-4.911,4.911-4.911,12.902,0,17.814c6.488,6.488,17.045,6.488,23.534,0c1.397-1.397,3.664-1.398,5.063,0s1.398,3.665,0,5.063
			C35.016,44.9,28.92,47.221,22.825,47.221z"/>
	</g>
	<g>
		<path fill="#00CCFF" d="M21.119,41.699c-8.332,0.002-15.33-6.536-15.795-14.956c-0.407-7.367,5.255-13.69,12.621-14.097
			c1.98-0.106,3.663,1.403,3.772,3.377c0.108,1.974-1.403,3.663-3.378,3.772c-3.424,0.189-6.056,3.128-5.867,6.552
			c0.264,4.773,4.36,8.442,9.134,8.179c6.458-0.356,11.423-5.902,11.066-12.361c-0.229-4.149-2.061-7.962-5.157-10.734
			c-3.097-2.773-7.085-4.175-11.236-3.944c-1.975,0.107-3.663-1.403-3.772-3.377c-0.109-1.975,1.403-3.663,3.377-3.772
			c6.058-0.334,11.886,1.71,16.406,5.758c4.522,4.048,7.195,9.614,7.53,15.674c0.574,10.401-7.42,19.33-17.82,19.904
			C21.707,41.692,21.411,41.699,21.119,41.699z"/>
	</g>
</g>
</svg>
