<?xml version="1.0" encoding="utf-8"?>
<!-- Generator: Adobe Illustrator 16.0.0, SVG Export Plug-In . SVG Version: 6.00 Build 0)  -->
<!DOCTYPE svg PUBLIC "-//W3C//DTD SVG 1.1//EN" "http://www.w3.org/Graphics/SVG/1.1/DTD/svg11.dtd">
<svg version="1.1" id="Layer_1" xmlns="http://www.w3.org/2000/svg" xmlns:xlink="http://www.w3.org/1999/xlink" x="0px" y="0px"
	 width="391.757px" height="109.982px" viewBox="0 0 391.757 109.982" enable-background="new 0 0 391.757 109.982"
	 xml:space="preserve">
<g>
	<g>
		<g>
			<path fill="#0099CC" d="M52.994,109.982c-14.289,0-28.573-5.438-39.451-16.315c-18.057-18.057-18.057-47.438,0-65.495
				c15.1-15.102,39.67-15.101,54.77-0.002c12.734,12.736,12.734,33.457,0,46.19c-3.277,3.277-8.591,3.277-11.867,0
				c-3.277-3.276-3.277-8.591,0-11.867c6.189-6.19,6.189-16.265,0-22.454c-8.557-8.556-22.479-8.557-31.035,0
				c-11.512,11.513-11.512,30.246,0,41.76c15.211,15.21,39.957,15.21,55.168-0.001c3.275-3.275,8.59-3.276,11.867,0.001
				s3.277,8.591,0,11.868C81.57,104.542,67.279,109.982,52.994,109.982z"/>
		</g>
		<g>
			<path fill="#00CCFF" d="M48.994,97.039C29.463,97.042,13.06,81.716,11.969,61.979c-0.953-17.268,12.318-32.091,29.586-33.045
				c4.643-0.25,8.586,3.289,8.842,7.916c0.256,4.629-3.289,8.586-7.917,8.843c-8.026,0.443-14.195,7.334-13.753,15.36
				c0.619,11.188,10.222,19.789,21.412,19.171c15.14-0.836,26.776-13.835,25.94-28.976c-0.537-9.727-4.829-18.664-12.089-25.162
				c-7.258-6.499-16.609-9.785-26.338-9.244c-4.631,0.251-8.587-3.289-8.844-7.916c-0.255-4.629,3.289-8.587,7.918-8.843
				c14.2-0.784,27.862,4.011,38.459,13.499c10.6,9.489,16.867,22.537,17.652,36.741c1.346,24.382-17.395,45.311-41.774,46.658
				C50.371,97.021,49.68,97.039,48.994,97.039z"/>
		</g>
	</g>
	<g>
		<g>
			<g>
				<path fill="#FFFFFF" d="M113.288,31.476h9.388l15.458,26.753h0.564l15.459-26.753h9.459v44.196h-9.459V57.099l0.564-8.471
					h-0.564l-12.847,22.66h-5.718l-12.917-22.66h-0.566l0.566,8.471v18.573h-9.388V31.476z"/>
				<path fill="#FFFFFF" d="M187.948,58.512l-17.011-27.036h11.365l10.093,16.73h0.564l9.741-16.73h11.507l-16.73,27.036v17.16
					h-9.529V58.512z"/>
				<path fill="#FFFFFF" d="M288.923,76.801c-2.965,0-5.658-0.482-8.082-1.446c-2.424-0.965-4.482-2.365-6.177-4.201
					c-1.694-1.835-3.012-4.059-3.952-6.671c-0.942-2.611-1.412-5.587-1.412-8.929V31.476h9.529v24.643
					c0,1.694,0.211,3.246,0.635,4.659c0.425,1.411,1.06,2.635,1.907,3.67c0.847,1.035,1.905,1.848,3.177,2.436
					c1.27,0.589,2.727,0.882,4.375,0.882c1.695,0,3.177-0.293,4.447-0.882c1.271-0.588,2.33-1.4,3.177-2.436s1.482-2.259,1.905-3.67
					c0.424-1.413,0.637-2.966,0.637-4.659V31.475h9.528v24.079c0,3.153-0.459,6.035-1.376,8.646s-2.236,4.848-3.953,6.706
					c-1.718,1.86-3.788,3.307-6.212,4.341C294.652,76.282,291.935,76.801,288.923,76.801z"/>
				<path fill="#FFFFFF" d="M316.404,31.475h18.425c2.54,0,4.844,0.4,6.916,1.2c2.07,0.801,3.848,1.907,5.33,3.317
					c1.482,1.413,2.623,3.096,3.424,5.048c0.799,1.953,1.201,4.083,1.201,6.389c0,1.695-0.284,3.282-0.849,4.765
					c-0.565,1.483-1.341,2.823-2.329,4.023c-0.989,1.199-2.142,2.26-3.459,3.176c-1.318,0.918-2.707,1.637-4.165,2.154l-0.069,0.494
					l13.553,13.065v0.565H343.44l-13.06-12.644h-4.447v12.644h-9.529V31.475z M334.757,54.276c2.164,0,3.941-0.659,5.33-1.978
					c1.389-1.316,2.082-2.987,2.082-5.012c0-0.894-0.153-1.764-0.459-2.611c-0.307-0.848-0.766-1.6-1.377-2.26
					c-0.611-0.657-1.376-1.188-2.293-1.588c-0.918-0.399-1.965-0.6-3.142-0.6h-8.965v14.048H334.757z"/>
				<path fill="#FFFFFF" d="M369.239,40.511v7.977h20.259v9.035h-20.259v9.113h22.518v9.036H359.71V31.475h32.047v9.036H369.239z"/>
			</g>
			<path fill="#FFFFFF" d="M251.876,57.994c-1.91,5.845-7.492,10.192-14.084,10.192c-8.167,0-14.786-6.658-14.786-14.825
				c0-8.166,6.619-14.859,14.786-14.859c6.631,0,12.243,4.463,14.119,10.308h9.395c-2.07-11.271-11.807-19.466-23.514-19.466
				c-13.214,0-23.925,10.738-23.925,23.952s10.711,24.017,23.925,24.017c11.67,0,21.383-8.047,23.495-19.318H251.876z"/>
		</g>
	</g>
</g>
</svg>
