<?xml version="1.0" encoding="utf-8"?>
<!-- Generator: Adobe Illustrator 16.0.0, SVG Export Plug-In . SVG Version: 6.00 Build 0)  -->
<!DOCTYPE svg PUBLIC "-//W3C//DTD SVG 1.1//EN" "http://www.w3.org/Graphics/SVG/1.1/DTD/svg11.dtd" [
	<!ENTITY ns_flows "http://ns.adobe.com/Flows/1.0/">
	<!ENTITY ns_extend "http://ns.adobe.com/Extensibility/1.0/">
	<!ENTITY ns_ai "http://ns.adobe.com/AdobeIllustrator/10.0/">
	<!ENTITY ns_graphs "http://ns.adobe.com/Graphs/1.0/">
]>
<svg version="1.1" id="Layer_2" xmlns:x="&ns_extend;" xmlns:i="&ns_ai;" xmlns:graph="&ns_graphs;"
	 xmlns="http://www.w3.org/2000/svg" xmlns:xlink="http://www.w3.org/1999/xlink" xmlns:a="http://ns.adobe.com/AdobeSVGViewerExtensions/3.0/"
	 x="0px" y="0px" width="94px" height="28px" viewBox="0 0 94 28" enable-background="new 0 0 94 28" xml:space="preserve">
<g>
	<g>
		<path fill="#787878" d="M32.604,7.474h2.047l3.371,5.833h0.123l3.371-5.833h2.063v11.021h-2.063v-5.434l0.123-1.847h-0.123
			l-2.801,4.94h-1.247l-2.817-4.94h-0.123l0.123,1.847v5.434h-2.047V7.474z"/>
		<path fill="#787878" d="M48.58,13.368l-3.709-5.895h2.478l2.202,3.648h0.123l2.123-3.648h2.51l-3.648,5.895v5.126H48.58V13.368z"
			/>
		<path fill="#787878" d="M64.618,16.724c-0.544,0.657-1.185,1.157-1.924,1.501c-0.738,0.344-1.564,0.516-2.478,0.516
			c-0.821,0-1.583-0.148-2.286-0.446s-1.311-0.703-1.824-1.216c-0.513-0.513-0.918-1.121-1.216-1.824
			c-0.298-0.702-0.446-1.459-0.446-2.271c0-0.811,0.148-1.566,0.446-2.27c0.298-0.703,0.703-1.311,1.216-1.824
			c0.514-0.513,1.121-0.918,1.824-1.216c0.703-0.297,1.465-0.446,2.286-0.446c0.882,0,1.659,0.154,2.332,0.462
			c0.672,0.308,1.27,0.754,1.793,1.339l-1.463,1.417c-0.328-0.38-0.705-0.683-1.131-0.908s-0.932-0.339-1.517-0.339
			c-0.513,0-0.995,0.09-1.446,0.27c-0.452,0.18-0.845,0.434-1.178,0.762c-0.333,0.329-0.598,0.726-0.793,1.192
			c-0.194,0.468-0.292,0.988-0.292,1.563c0,0.575,0.098,1.096,0.292,1.563c0.195,0.467,0.46,0.865,0.793,1.193
			s0.726,0.582,1.178,0.762c0.451,0.18,0.934,0.27,1.446,0.27c0.616,0,1.162-0.126,1.64-0.377c0.478-0.252,0.9-0.608,1.27-1.07
			L64.618,16.724z"/>
		<path fill="#787878" d="M70.313,18.74c-0.646,0-1.233-0.105-1.762-0.315c-0.529-0.21-0.978-0.516-1.348-0.916
			c-0.369-0.4-0.656-0.885-0.861-1.454s-0.308-1.219-0.308-1.947V7.474h2.077v6.757c0,0.369,0.047,0.708,0.139,1.016
			c0.093,0.309,0.231,0.575,0.416,0.801s0.415,0.402,0.692,0.531c0.277,0.128,0.595,0.192,0.954,0.192
			c0.37,0,0.693-0.064,0.97-0.192c0.277-0.129,0.508-0.306,0.693-0.531c0.185-0.226,0.322-0.492,0.415-0.801
			c0.093-0.308,0.139-0.646,0.139-1.016V7.474h2.078v6.634c0,0.688-0.101,1.316-0.301,1.886s-0.487,1.057-0.861,1.462
			c-0.375,0.405-0.826,0.721-1.354,0.946C71.563,18.627,70.971,18.74,70.313,18.74z"/>
		<path fill="#787878" d="M76.578,7.474h4.018c0.554,0,1.057,0.087,1.508,0.262c0.451,0.174,0.839,0.416,1.162,0.723
			c0.323,0.308,0.572,0.675,0.747,1.101c0.174,0.426,0.261,0.89,0.261,1.393c0,0.369-0.062,0.716-0.185,1.039
			s-0.292,0.615-0.508,0.877c-0.215,0.262-0.467,0.493-0.754,0.692c-0.287,0.2-0.59,0.357-0.908,0.47l-0.016,0.108l2.955,4.232
			v0.123h-2.386l-2.847-4.141h-0.97v4.141h-2.078V7.474z M80.58,12.445c0.472,0,0.859-0.144,1.162-0.432
			c0.303-0.287,0.454-0.651,0.454-1.092c0-0.195-0.034-0.385-0.101-0.57c-0.066-0.185-0.167-0.349-0.3-0.492
			c-0.134-0.144-0.3-0.259-0.5-0.347c-0.2-0.087-0.429-0.131-0.686-0.131h-1.954v3.063H80.58z"/>
		<path fill="#787878" d="M88.199,9.444v2.555h4.417v1.97h-4.417v2.556h4.909v1.97h-6.987V7.474h6.987v1.97H88.199z"/>
	</g>
</g>
<g>
	<g>
		<path fill="#0099CC" d="M13.236,27.59c-3.567,0-7.133-1.355-9.849-4.072c-4.508-4.508-4.508-11.844,0-16.352
			c3.77-3.771,9.903-3.771,13.673,0c3.179,3.179,3.179,8.352,0,11.53c-0.818,0.818-2.145,0.818-2.962,0
			c-0.819-0.816-0.819-2.145,0-2.963c1.544-1.543,1.544-4.059,0-5.604c-2.137-2.135-5.613-2.135-7.749,0
			c-2.874,2.875-2.874,7.55,0,10.423c3.797,3.799,9.976,3.799,13.772,0c0.818-0.814,2.145-0.816,2.963,0
			c0.818,0.822,0.818,2.146,0,2.967C20.371,26.232,16.803,27.59,13.236,27.59z"/>
	</g>
	<g>
		<path fill="#00CCFF" d="M12.237,24.357c-4.876,0.004-8.971-3.824-9.242-8.754c-0.239-4.309,3.075-8.01,7.385-8.248
			c1.159-0.063,2.144,0.821,2.208,1.977c0.064,1.155-0.82,2.144-1.976,2.208c-2.003,0.11-3.544,1.831-3.433,3.833
			c0.154,2.793,2.551,4.941,5.345,4.785c3.78-0.207,6.686-3.451,6.478-7.232c-0.135-2.428-1.206-4.659-3.019-6.282
			c-1.813-1.622-4.146-2.443-6.575-2.309C8.251,4.399,7.262,3.516,7.199,2.36C7.134,1.205,8.02,0.217,9.175,0.152
			c3.545-0.195,6.957,1.002,9.603,3.37c2.646,2.369,4.211,5.628,4.406,9.172c0.336,6.088-4.343,11.313-10.429,11.647
			C12.581,24.354,12.41,24.357,12.237,24.357z"/>
	</g>
</g>
</svg>
