<?xml version="1.0" encoding="utf-8"?>
<!-- Generator: Adobe Illustrator 16.0.0, SVG Export Plug-In . SVG Version: 6.00 Build 0)  -->
<!DOCTYPE svg PUBLIC "-//W3C//DTD SVG 1.1//EN" "http://www.w3.org/Graphics/SVG/1.1/DTD/svg11.dtd">
<svg version="1.1" id="Layer_1" xmlns="http://www.w3.org/2000/svg" xmlns:xlink="http://www.w3.org/1999/xlink" x="0px" y="0px"
	 width="1261.521px" height="352.574px" viewBox="0 0 1261.521 352.574" enable-background="new 0 0 1261.521 352.574"
	 xml:space="preserve">
<g>
	<path opacity="0.5" fill="#0099CC" d="M176.101,337.887c-43.044-0.002-83.512-16.764-113.948-47.197
		c-30.436-30.437-47.196-70.9-47.196-113.946c0-43.042,16.761-83.51,47.196-113.948c30.437-30.436,70.904-47.197,113.948-47.199
		c43.045,0,83.513,16.763,113.95,47.199c30.438,30.438,47.202,70.905,47.202,113.948l-0.007,0.537l0.007,0.546
		c0,10.617-1.013,20.932-3.095,31.534l-1.099,5.427c-0.11,0.54-0.342,1.031-0.666,1.441c-7.04,28.061-21.662,53.779-42.342,74.459
		C259.614,321.125,219.146,337.887,176.101,337.887L176.101,337.887z"/>
	<path fill="#FFFFFF" d="M176.289,82.83c-51.89,0-94.104,42.04-94.104,93.713c0,51.743,42.215,93.84,94.104,93.84
		c43.199-0.002,79.649-27.621,90.703-68.523l0.305-1.268h65.008c1.251-8,1.896-16.031,1.917-24.096
		c-0.025-6.986-0.518-13.904-1.463-20.904h-64.582l-2.014-6.203C253.955,110.148,216.998,82.828,176.289,82.83L176.289,82.83z"/>
	<path fill="#343A40" d="M176.288,352.574c-47.09,0-91.36-18.336-124.656-51.633C18.337,267.646,0,223.377,0,176.289
		c0-47.09,18.337-91.357,51.632-124.654C84.928,18.338,129.198,0,176.287,0c47.09,0,91.36,18.336,124.658,51.633
		c33.298,33.297,51.636,77.566,51.636,124.654l-0.007,0.59l0.007,0.611c0,11.615-1.107,23.088-3.386,34.691l-1.463,7.412h-0.398
		c-7.676,30-23.699,58.848-46.389,81.534C267.647,334.422,223.376,352.574,176.288,352.574L176.288,352.574z M176.288,18.355
		c-87.084,0-157.933,70.849-157.933,157.934c0,87.084,70.848,158.118,157.933,158.118c70.613-0.003,132.828-47.815,151.998-114.815
		h-47.873c-6.133,15-15.407,28.338-27.576,39.559c-20.949,19.313-48.134,29.855-76.547,29.855
		c-30.042,0-58.281-11.711-79.514-32.895c-21.245-21.197-32.946-49.436-32.946-79.475c0-30.043,11.703-58.245,32.953-79.398
		c21.247-21.149,49.483-32.803,79.507-32.803c24.513,0,47.794,7.419,67.326,22.212c16.892,12.796,30.297,30.944,37.839,49.944
		h47.962c-6.918-27-21.223-52.152-41.45-72.379C258.135,34.385,218.474,18.354,176.288,18.355L176.288,18.355z M176.289,82.83
		c-51.89,0-94.104,42.04-94.104,93.713c0,51.743,42.215,93.84,94.104,93.84c43.199-0.002,79.649-27.621,90.703-68.523l0.305-1.268
		h65.008c1.251-8,1.896-16.031,1.917-24.096c-0.025-6.986-0.518-13.904-1.463-20.904h-64.582l-2.014-6.203
		C253.955,110.148,216.998,82.828,176.289,82.83L176.289,82.83z"/>
	<path fill="#343A40" d="M179.979,186.746c-6.23,0-11.298-5.068-11.298-11.298s5.067-11.297,11.298-11.297
		c6.229,0,11.297,5.067,11.297,11.297S186.209,186.746,179.979,186.746z"/>
	<g>
		<g>
			<path fill="#343A40" d="M419.552,125.07h22.489l37.03,64.084h1.353l37.03-64.084h22.657v105.867h-22.657v-44.49l1.352-20.29
				h-1.352l-30.773,54.278h-13.698l-30.941-54.278h-1.354l1.354,20.29v44.49h-22.489V125.07z"/>
			<path fill="#343A40" d="M624.743,189.831l-40.749-64.761h27.225l24.178,40.074h1.352l23.335-40.074h27.563l-40.075,64.761v41.106
				h-22.828V189.831z"/>
			<path fill="#343A40" d="M935.104,233.642c-7.099,0-13.555-1.156-19.36-3.466c-5.806-2.311-10.735-5.665-14.794-10.062
				c-4.059-4.396-7.215-9.723-9.469-15.979c-2.257-6.255-3.383-13.384-3.383-21.39V125.07l22.828-0.001v59.029
				c0,4.059,0.506,7.776,1.521,11.161c1.017,3.379,2.538,6.312,4.567,8.791s4.564,4.425,7.611,5.832
				c3.04,1.411,6.531,2.114,10.479,2.114c4.061,0,7.609-0.703,10.654-2.114c3.043-1.407,5.582-3.353,7.609-5.832
				c2.029-2.479,3.55-5.412,4.564-8.791c1.015-3.385,1.523-7.104,1.523-11.161v-59.031h22.826v57.678
				c0,7.556-1.1,14.457-3.298,20.712c-2.196,6.257-5.356,11.613-9.468,16.064c-4.115,4.456-9.076,7.922-14.881,10.398
				C948.829,232.399,942.319,233.642,935.104,233.642z"/>
			<path fill="#343A40" d="M1041.657,125.067h44.133c6.086,0,11.607,0.96,16.569,2.875c4.96,1.918,9.215,4.567,12.767,7.947
				c3.551,3.383,6.283,7.414,8.201,12.09c1.915,4.68,2.877,9.781,2.877,15.304c0,4.061-0.68,7.862-2.031,11.413
				c-1.354,3.554-3.213,6.764-5.58,9.639c-2.369,2.873-5.131,5.412-8.285,7.607c-3.157,2.198-6.484,3.92-9.979,5.16l-0.166,1.184
				l32.465,31.297v1.354h-26.21l-31.281-30.285h-10.653v30.285h-22.826V125.067z M1085.62,179.686c5.183,0,9.439-1.578,12.767-4.735
				c3.325-3.154,4.987-7.156,4.987-12.006c0-2.14-0.367-4.226-1.1-6.256c-0.734-2.029-1.833-3.831-3.297-5.411
				c-1.467-1.575-3.297-2.846-5.496-3.804c-2.197-0.957-4.706-1.438-7.524-1.438h-21.474v33.65H1085.62z"/>
			<path fill="#343A40" d="M1207.581,146.712v19.107h48.529v21.643h-48.529v21.83h53.94v21.645h-76.767V125.067h76.767v21.645
				H1207.581z"/>
		</g>
		<path fill="#343A40" d="M813.808,188.592c-4.574,14-17.945,24.416-33.734,24.416c-19.564,0-35.421-15.951-35.421-35.514
			c0-19.561,15.856-35.594,35.421-35.594c15.883,0,29.325,10.691,33.818,24.691h22.506c-4.959-27-28.282-46.629-56.326-46.629
			c-31.652-0.001-57.311,25.723-57.311,57.375s25.658,57.528,57.311,57.529c27.955,0,51.221-19.275,56.281-46.275H813.808z"/>
	</g>
</g>
</svg>
