<?xml version="1.0" encoding="UTF-8"?>
<svg width="153px" height="48px" viewBox="0 0 153 48" version="1.1" xmlns="http://www.w3.org/2000/svg" xmlns:xlink="http://www.w3.org/1999/xlink">
    <title>Artboard</title>
    <g id="Artboard" stroke="none" stroke-width="1" fill="none" fill-rule="evenodd">
        <path d="M32.665,47.555 L32.665,43.414 L35.904,43.414 C37.1476667,43.414 38.23075,43.209 39.15325,42.799 C40.07575,42.389 40.783,41.7979167 41.275,41.02575 C41.767,40.2535833 42.013,39.3481667 42.013,38.3095 C42.013,37.2571667 41.767,36.3483333 41.275,35.583 C40.783,34.8176667 40.07575,34.23 39.15325,33.82 C38.23075,33.41 37.1476667,33.205 35.904,33.205 L35.904,33.205 L30,33.205 L30,47.555 L32.665,47.555 Z M35.781,41.159 L32.665,41.159 L32.665,35.46 L35.781,35.46 C36.9426667,35.46 37.8241667,35.706 38.4255,36.198 C39.0268333,36.69 39.3275,37.3938333 39.3275,38.3095 C39.3275,39.2251667 39.0268333,39.929 38.4255,40.421 C37.8241667,40.913 36.9426667,41.159 35.781,41.159 L35.781,41.159 Z M47.343,47.555 L47.343,43.373 L50.72222,43.37218 C50.89934,43.3699933 51.0371,43.3634333 51.1355,43.3525 L51.1355,43.3525 L54.067,47.555 L56.937,47.555 L53.6365,42.84 C54.6205,42.4573333 55.3755833,41.8765 55.90175,41.0975 C56.4279167,40.3185 56.691,39.3891667 56.691,38.3095 C56.691,37.2571667 56.445,36.3483333 55.953,35.583 C55.461,34.8176667 54.75375,34.23 53.83125,33.82 C52.90875,33.41 51.8256667,33.205 50.582,33.205 L50.582,33.205 L44.678,33.205 L44.678,47.555 L47.343,47.555 Z M50.459,41.1795 L47.343,41.1795 L47.343,35.46 L50.459,35.46 C51.6206667,35.46 52.5021667,35.706 53.1035,36.198 C53.7048333,36.69 54.0055,37.3938333 54.0055,38.3095 C54.0055,39.2251667 53.7048333,39.9324167 53.1035,40.43125 C52.5021667,40.9300833 51.6206667,41.1795 50.459,41.1795 L50.459,41.1795 Z M66.367,47.76 C67.8293333,47.76 69.1481667,47.44225 70.3235,46.80675 C71.4988333,46.17125 72.4213333,45.2931667 73.091,44.1725 C73.7606667,43.0518333 74.0955,41.7876667 74.0955,40.38 C74.0955,38.9723333 73.7606667,37.7081667 73.091,36.5875 C72.4213333,35.4668333 71.4988333,34.58875 70.3235,33.95325 C69.1481667,33.31775 67.8293333,33 66.367,33 C64.9046667,33 63.5858333,33.31775 62.4105,33.95325 C61.2351667,34.58875 60.3126667,35.47025 59.643,36.59775 C58.9733333,37.72525 58.6385,38.986 58.6385,40.38 C58.6385,41.774 58.9733333,43.03475 59.643,44.16225 C60.3126667,45.28975 61.2351667,46.17125 62.4105,46.80675 C63.5858333,47.44225 64.9046667,47.76 66.367,47.76 Z M66.367,45.423 C65.4103333,45.423 64.5493333,45.20775 63.784,44.77725 C63.0186667,44.34675 62.4173333,43.7454167 61.98,42.97325 C61.5426667,42.2010833 61.324,41.3366667 61.324,40.38 C61.324,39.4233333 61.5426667,38.5589167 61.98,37.78675 C62.4173333,37.0145833 63.0186667,36.41325 63.784,35.98275 C64.5493333,35.55225 65.4103333,35.337 66.367,35.337 C67.3236667,35.337 68.1846667,35.55225 68.95,35.98275 C69.7153333,36.41325 70.3166667,37.0145833 70.754,37.78675 C71.1913333,38.5589167 71.41,39.4233333 71.41,40.38 C71.41,41.3366667 71.1913333,42.2010833 70.754,42.97325 C70.3166667,43.7454167 69.7153333,44.34675 68.95,44.77725 C68.1846667,45.20775 67.3236667,45.423 66.367,45.423 Z M83.628,47.76 C84.6666667,47.76 85.678,47.6028333 86.662,47.2885 C87.646,46.9741667 88.507,46.5231667 89.245,45.9355 L89.245,45.9355 L89.245,40.216 L86.7235,40.216 L86.7235,44.685 C85.8761667,45.177 84.8921667,45.423 83.7715,45.423 C82.7738333,45.423 81.8820833,45.2043333 81.09625,44.767 C80.3104167,44.3296667 79.6954167,43.7283333 79.25125,42.963 C78.8070833,42.1976667 78.585,41.3366667 78.585,40.38 C78.585,39.396 78.8070833,38.5213333 79.25125,37.756 C79.6954167,36.9906667 80.3104167,36.3961667 81.09625,35.9725 C81.8820833,35.5488333 82.7806667,35.337 83.792,35.337 C85.3363333,35.337 86.6551667,35.8836667 87.7485,36.977 L87.7485,36.977 L89.4295,35.337 C88.7598333,34.5716667 87.933,33.9908333 86.949,33.5945 C85.965,33.1981667 84.8716667,33 83.669,33 C82.193,33 80.8639167,33.31775 79.68175,33.95325 C78.4995833,34.58875 77.5736667,35.4668333 76.904,36.5875 C76.2343333,37.7081667 75.8995,38.9723333 75.8995,40.38 C75.8995,41.7876667 76.2343333,43.0518333 76.904,44.1725 C77.5736667,45.2931667 78.4961667,46.17125 79.6715,46.80675 C80.8468333,47.44225 82.1656667,47.76 83.628,47.76 Z M95.4155,47.555 L95.4155,43.373 L98.79472,43.37218 C98.97184,43.3699933 99.1096,43.3634333 99.208,43.3525 L99.208,43.3525 L102.1395,47.555 L105.0095,47.555 L101.709,42.84 C102.693,42.4573333 103.448083,41.8765 103.97425,41.0975 C104.500417,40.3185 104.7635,39.3891667 104.7635,38.3095 C104.7635,37.2571667 104.5175,36.3483333 104.0255,35.583 C103.5335,34.8176667 102.82625,34.23 101.90375,33.82 C100.98125,33.41 99.8981667,33.205 98.6545,33.205 L98.6545,33.205 L92.7505,33.205 L92.7505,47.555 L95.4155,47.555 Z M98.5315,41.1795 L95.4155,41.1795 L95.4155,35.46 L98.5315,35.46 C99.6931667,35.46 100.574667,35.706 101.176,36.198 C101.777333,36.69 102.078,37.3938333 102.078,38.3095 C102.078,39.2251667 101.777333,39.9324167 101.176,40.43125 C100.574667,40.9300833 99.6931667,41.1795 98.5315,41.1795 L98.5315,41.1795 Z M108.4535,47.555 L109.868,44.234 L117.043,44.234 L118.478,47.555 L121.266,47.555 L114.788,33.205 L112.164,33.205 L105.7065,47.555 L108.4535,47.555 Z M116.1615,42.143 L110.77,42.143 L113.4555,35.87 L116.1615,42.143 Z M125.6325,47.555 L125.6325,38.166 L130.3475,45.915 L131.5365,45.915 L136.2515,38.043 L136.272,47.555 L138.7935,47.555 L138.773,33.205 L136.5795,33.205 L130.983,42.717 L125.284,33.205 L123.0905,33.205 L123.0905,47.555 L125.6325,47.555 Z M147.1165,47.76 C148.373833,47.76 149.439833,47.5686667 150.3145,47.186 C151.189167,46.8033333 151.84175,46.2908333 152.27225,45.6485 C152.70275,45.0061667 152.918,44.2886667 152.918,43.496 C152.918,42.5666667 152.675417,41.8286667 152.19025,41.282 C151.705083,40.7353333 151.120833,40.32875 150.4375,40.06225 C149.754167,39.79575 148.8795,39.5395 147.8135,39.2935 C147.0345,39.1021667 146.4195,38.9313333 145.9685,38.781 C145.5175,38.6306667 145.145083,38.4256667 144.85125,38.166 C144.557417,37.9063333 144.4105,37.5715 144.4105,37.1615 C144.4105,36.5738333 144.66675,36.1023333 145.17925,35.747 C145.69175,35.3916667 146.474167,35.214 147.5265,35.214 C148.168833,35.214 148.831667,35.3096667 149.515,35.501 C150.198333,35.6923333 150.854333,35.9725 151.483,36.3415 L151.483,36.3415 L152.3235,34.271 C151.7085,33.861 150.977333,33.5466667 150.13,33.328 C149.282667,33.1093333 148.421667,33 147.547,33 C146.289667,33 145.227083,33.1913333 144.35925,33.574 C143.491417,33.9566667 142.84225,34.4725833 142.41175,35.12175 C141.98125,35.7709167 141.766,36.4918333 141.766,37.2845 C141.766,38.2275 142.008583,38.97575 142.49375,39.52925 C142.978917,40.08275 143.55975,40.4893333 144.23625,40.749 C144.91275,41.0086667 145.797667,41.2683333 146.891,41.528 C147.67,41.7193333 148.285,41.8901667 148.736,42.0405 C149.187,42.1908333 149.559417,42.39925 149.85325,42.66575 C150.147083,42.93225 150.294,43.2705 150.294,43.6805 C150.294,44.2408333 150.030917,44.6918333 149.50475,45.0335 C148.978583,45.3751667 148.1825,45.546 147.1165,45.546 C146.2555,45.546 145.397917,45.3990833 144.54375,45.10525 C143.689583,44.8114167 142.968667,44.4321667 142.381,43.9675 L142.381,43.9675 L141.4585,46.038 C142.059833,46.5573333 142.876417,46.9741667 143.90825,47.2885 C144.940083,47.6028333 146.0095,47.76 147.1165,47.76 Z" id="PROGRAMS" fill="#054B81" fill-rule="nonzero"></path>
        <path d="M33.8004079,25 C32.6439344,25 31.5371698,24.8348968 30.4800809,24.5046854 C29.4229919,24.174474 28.5963066,23.7594849 28,23.2597055 L28.8673507,21.7603748 C29.4636573,22.2244557 30.2135467,22.6037468 31.1170416,22.8982597 C32.0205364,23.1927725 32.960157,23.3400268 33.9359314,23.3400268 C35.236964,23.3400268 36.1991716,23.1392255 36.822583,22.7376171 C37.4459944,22.3360087 37.7576955,21.7693031 37.7576955,21.0374833 C37.7576955,20.5198546 37.586034,20.11379 37.242706,19.8192771 C36.8993779,19.5247643 36.4657069,19.3016518 35.9416799,19.1499331 C35.4176529,18.9982144 34.7219723,18.8509601 33.8546173,18.708166 C32.6981438,18.4939748 31.7675581,18.2753246 31.0628322,18.0522088 C30.3581062,17.829093 29.7572911,17.4498019 29.260369,16.914324 C28.7634468,16.3788461 28.5149895,15.6381127 28.5149895,14.6921017 C28.5149895,13.5140504 29.0119042,12.5502046 30.0057485,11.8005354 C30.9995928,11.0508664 32.3819192,10.6760374 34.152769,10.6760374 C35.0743338,10.6760374 35.9958847,10.7965182 36.9174495,11.0374833 C37.8390141,11.2784484 38.5979384,11.595268 39.194245,11.9879518 L38.353999,13.5140562 C37.1794558,12.7108394 35.7790598,12.3092369 34.152769,12.3092369 C32.9240161,12.3092369 31.9979477,12.5234249 31.3745363,12.9518073 C30.7511249,13.3801896 30.4394238,13.9424329 30.4394238,14.6385542 C30.4394238,15.1740321 30.6156027,15.602408 30.9679657,15.9236948 C31.3203287,16.2449815 31.7585171,16.4814807 32.2825441,16.6331995 C32.8065711,16.7849182 33.5293562,16.9410969 34.4509208,17.1017403 C35.5893244,17.3159315 36.5018405,17.5301195 37.1884966,17.7443105 C37.8751526,17.9585017 38.4624154,18.3244062 38.9503026,18.8420348 C39.4381899,19.3596635 39.6821298,20.0736233 39.6821298,20.9839357 C39.6821298,22.2155349 39.1626281,23.1927675 38.123609,23.9156626 C37.08459,24.6385578 35.6435373,25 33.8004079,25 Z M88.0797989,5 L88.0797989,24.8661312 L86.2366793,24.8661312 L86.2366793,22.08166 C85.658442,23.0276709 84.8950009,23.7505553 83.9463315,24.2503346 C82.9976612,24.7501141 81.9270362,25 80.734423,25 C79.3972509,25 78.1865861,24.6965671 77.1023922,24.0896921 C76.0181984,23.4828171 75.1689257,22.6349898 74.5545489,21.5461847 C73.940173,20.4573796 73.6329891,19.2168745 73.6329891,17.8246318 C73.6329891,16.4323893 73.940173,15.1918841 74.5545489,14.103079 C75.1689257,13.0142739 76.0181984,12.1709088 77.1023922,11.5729585 C78.1865861,10.9750082 79.3972509,10.6760374 80.734423,10.6760374 C81.8908967,10.6760374 82.9344176,10.9125366 83.8650172,11.3855422 C84.7956168,11.8585476 85.559058,12.5501963 86.155365,13.4605087 L86.155365,5 L88.0797989,5 Z M80.8970516,23.313253 C81.8908958,23.313253 82.7898596,23.0856783 83.5939701,22.6305221 C84.3980806,22.1753658 85.0305172,21.5283397 85.4912998,20.6894244 C85.9520815,19.850509 86.1824701,18.8955877 86.1824701,17.8246318 C86.1824701,16.753676 85.9520815,15.7987547 85.4912998,14.9598394 C85.0305172,14.120924 84.3980806,13.4738978 83.5939701,13.0187416 C82.7898596,12.5635854 81.8908958,12.3360107 80.8970516,12.3360107 C79.8851368,12.3360107 78.9771386,12.5635854 78.1730281,13.0187416 C77.3689176,13.4738978 76.736481,14.120924 76.2756984,14.9598394 C75.8149158,15.7987547 75.5845281,16.753676 75.5845281,17.8246318 C75.5845281,18.8955877 75.8149158,19.850509 76.2756984,20.6894244 C76.736481,21.5283397 77.3689176,22.1753658 78.1730281,22.6305221 C78.9771386,23.0856783 79.8851368,23.313253 80.8970516,23.313253 Z M96.9068995,25 C95.7504266,25 94.6436621,24.8348968 93.5865725,24.5046854 C92.5294837,24.174474 91.7027989,23.7594849 91.1064918,23.2597055 L91.9738424,21.7603748 C92.5701495,22.2244557 93.3200389,22.6037468 94.2235335,22.8982597 C95.1270281,23.1927725 96.0666486,23.3400268 97.042423,23.3400268 C98.3434556,23.3400268 99.305663,23.1392255 99.9290752,22.7376171 C100.552486,22.3360087 100.864187,21.7693031 100.864187,21.0374833 C100.864187,20.5198546 100.692526,20.11379 100.349198,19.8192771 C100.00587,19.5247643 99.5721984,19.3016518 99.0481721,19.1499331 C98.5241449,18.9982144 97.8284638,18.8509601 96.9611096,18.708166 C95.8046359,18.4939748 94.8740498,18.2753246 94.1693243,18.0522088 C93.4645978,17.829093 92.8637826,17.4498019 92.3668605,16.914324 C91.8699384,16.3788461 91.621481,15.6381127 91.621481,14.6921017 C91.621481,13.5140504 92.1183958,12.5502046 93.11224,11.8005354 C94.1060851,11.0508664 95.4884112,10.6760374 97.2592609,10.6760374 C98.1808261,10.6760374 99.1023768,10.7965182 100.023941,11.0374833 C100.945506,11.2784484 101.70443,11.595268 102.300737,11.9879518 L101.460491,13.5140562 C100.285948,12.7108394 98.8855516,12.3092369 97.2592609,12.3092369 C96.0305082,12.3092369 95.1044393,12.5234249 94.4810281,12.9518073 C93.8576168,13.3801896 93.5459158,13.9424329 93.5459158,14.6385542 C93.5459158,15.1740321 93.7220942,15.602408 94.0744574,15.9236948 C94.4268207,16.2449815 94.8650091,16.4814807 95.3890362,16.6331995 C95.9130634,16.7849182 96.6358478,16.9410969 97.557413,17.1017403 C98.6958161,17.3159315 99.6083324,17.5301195 100.294988,17.7443105 C100.981645,17.9585017 101.568908,18.3244062 102.056794,18.8420348 C102.544682,19.3596635 102.788621,20.0736233 102.788621,20.9839357 C102.788621,22.2155349 102.26912,23.1927675 101.230101,23.9156626 C100.191081,24.6385578 98.750029,25 96.9068995,25 Z M112.453661,24.0093708 C112.092264,24.3306575 111.649558,24.5760813 111.125531,24.7456493 C110.601504,24.9152173 110.050379,25 109.472143,25 C108.134971,25 107.105002,24.6430201 106.382206,23.9290495 C105.65941,23.215079 105.298018,22.2066107 105.298018,20.9036145 L105.298018,7.70414991 L107.222452,7.70414991 L107.222452,10.7831325 L111.532101,10.7831325 L111.532101,12.3895583 L107.222452,12.3895583 L107.222452,20.7965195 C107.222452,21.6354348 107.430253,22.2735365 107.84586,22.7108434 C108.261468,23.1481504 108.866801,23.3668005 109.661876,23.3668005 C110.529231,23.3668005 111.233947,23.1258391 111.776043,22.643909 L112.453661,24.0093708 Z M128.960429,10.7831326 L128.960429,24.8661312 L127.117309,24.8661312 L127.117309,22.08166 C126.539073,23.0276709 125.77563,23.7505553 124.826961,24.2503346 C123.878292,24.7501141 122.807667,25 121.615053,25 C120.27788,25 119.067216,24.6965671 117.983022,24.0896921 C116.898828,23.4828171 116.049556,22.6349898 115.435179,21.5461847 C114.820802,20.4573796 114.51362,19.2168745 114.51362,17.8246318 C114.51362,16.4323893 114.820802,15.1918841 115.435179,14.103079 C116.049556,13.0142739 116.898828,12.1709088 117.983022,11.5729585 C119.067216,10.9750082 120.27788,10.6760374 121.615053,10.6760374 C122.771526,10.6760374 123.815047,10.9125366 124.745647,11.3855422 C125.676246,11.8585476 126.439688,12.5501963 127.035995,13.4605087 L127.035995,10.7831326 L128.960429,10.7831326 Z M121.777681,23.313253 C122.771525,23.313253 123.67049,23.0856783 124.4746,22.6305221 C125.27871,22.1753658 125.911148,21.5283397 126.371929,20.6894244 C126.832712,19.850509 127.0631,18.8955877 127.0631,17.8246318 C127.0631,16.753676 126.832712,15.7987547 126.371929,14.9598394 C125.911148,14.120924 125.27871,13.4738978 124.4746,13.0187416 C123.67049,12.5635854 122.771525,12.3360107 121.777681,12.3360107 C120.765767,12.3360107 119.857768,12.5635854 119.053658,13.0187416 C118.249548,13.4738978 117.61711,14.120924 117.156329,14.9598394 C116.695546,15.7987547 116.465159,16.753676 116.465159,17.8246318 C116.465159,18.8955877 116.695546,19.850509 117.156329,20.6894244 C117.61711,21.5283397 118.249548,22.1753658 119.053658,22.6305221 C119.857768,23.0856783 120.765767,23.313253 121.777681,23.313253 Z M134.270646,13.54083 C134.722393,12.594819 135.395486,11.8808592 136.289947,11.3989291 C137.184407,10.9169989 138.291171,10.6760374 139.610274,10.6760374 L139.610274,12.523427 L139.149494,12.4966533 C137.649692,12.4966533 136.475167,12.9518026 135.625881,13.8621151 C134.776596,14.7724275 134.35196,16.0486308 134.35196,17.6907631 L134.35196,24.8661312 L132.427525,24.8661312 L132.427525,10.7831326 L134.270646,10.7831326 L134.270646,13.54083 Z M147.118278,25 C145.961804,25 144.85504,24.8348968 143.797951,24.5046854 C142.740862,24.174474 141.914177,23.7594849 141.31787,23.2597055 L142.185221,21.7603748 C142.781527,22.2244557 143.531417,22.6037468 144.434912,22.8982597 C145.338407,23.1927725 146.278027,23.3400268 147.253802,23.3400268 C148.554834,23.3400268 149.517042,23.1392255 150.140453,22.7376171 C150.763864,22.3360087 151.075565,21.7693031 151.075565,21.0374833 C151.075565,20.5198546 150.903904,20.11379 150.560576,19.8192771 C150.217248,19.5247643 149.783577,19.3016518 149.25955,19.1499331 C148.735523,18.9982144 148.039842,18.8509601 147.172487,18.708166 C146.016014,18.4939748 145.085428,18.2753246 144.380702,18.0522088 C143.675976,17.829093 143.075161,17.4498019 142.578239,16.914324 C142.081317,16.3788461 141.83286,15.6381127 141.83286,14.6921017 C141.83286,13.5140504 142.329774,12.5502046 143.323619,11.8005354 C144.317463,11.0508664 145.699789,10.6760374 147.470639,10.6760374 C148.392204,10.6760374 149.313755,10.7965182 150.23532,11.0374833 C151.156884,11.2784484 151.915809,11.595268 152.512115,11.9879518 L151.67187,13.5140562 C150.497326,12.7108394 149.09693,12.3092369 147.470639,12.3092369 C146.241886,12.3092369 145.315818,12.5234249 144.692407,12.9518073 C144.068995,13.3801896 143.757294,13.9424329 143.757294,14.6385542 C143.757294,15.1740321 143.933473,15.602408 144.285836,15.9236948 C144.638199,16.2449815 145.076388,16.4814807 145.600414,16.6331995 C146.124441,16.7849182 146.847226,16.9410969 147.768791,17.1017403 C148.907195,17.3159315 149.819711,17.5301195 150.506367,17.7443105 C151.193023,17.9585017 151.780285,18.3244062 152.268173,18.8420348 C152.75606,19.3596635 153,20.0736233 153,20.9839357 C153,22.2155349 152.480498,23.1927675 151.441479,23.9156626 C150.40246,24.6385578 148.961408,25 147.118278,25 Z M71.4517237,18.3118097 L59.7754331,18.3118097 C59.8815817,19.7980816 60.4388536,20.9988626 61.4472656,21.9141886 C62.4556776,22.8295146 63.729442,23.2871708 65.2685969,23.2871708 C66.1354774,23.2871708 66.9315806,23.1285771 67.6569293,22.8113849 C68.3822781,22.4941927 69.0103152,22.0274741 69.541058,21.4112149 L70.6025389,22.6618522 C69.9833388,23.4231134 69.2093496,24.0031133 68.2805498,24.4018692 C67.3517491,24.8006251 66.3300833,25 65.2155226,25 C63.7825166,25 62.513175,24.6873438 61.4074601,24.0620221 C60.3017452,23.4367004 59.4393005,22.5712318 58.8201002,21.4655905 C58.2008999,20.3599492 57.8913043,19.1093245 57.8913043,17.7136788 C57.8913043,16.3180333 58.1876315,15.0674085 58.7802947,13.9617672 C59.3729579,12.8561259 60.1867518,11.9951885 61.2217009,11.3789295 C62.2566501,10.7626704 63.4198447,10.4545455 64.7113197,10.4545455 C66.0027944,10.4545455 67.1615661,10.7626704 68.1876694,11.3789295 C69.2137736,11.9951885 70.0187219,12.8515946 70.6025389,13.9481734 C71.1863569,15.044752 71.4782609,16.299908 71.4782609,17.7136788 L71.4517237,18.3118097 Z M64.7113197,12.1129992 C63.3667704,12.1129992 62.2389581,12.5525303 61.327849,13.4316058 C60.4167399,14.3106813 59.8992732,15.4570873 59.7754331,16.8708581 L69.6737428,16.8708581 C69.5499031,15.4570873 69.0324366,14.3106813 68.121327,13.4316058 C67.2102183,12.5525303 66.0735607,12.1129992 64.7113197,12.1129992 Z M55.147376,18.3118097 L43.4710852,18.3118097 C43.5772339,19.7980816 44.1345058,20.9988626 45.1429178,21.9141886 C46.1513298,22.8295146 47.4250942,23.2871708 48.9642494,23.2871708 C49.8311298,23.2871708 50.6272325,23.1285771 51.3525815,22.8113849 C52.0779305,22.4941927 52.7059671,22.0274741 53.2367102,21.4112149 L54.2981912,22.6618522 C53.6789909,23.4231134 52.9050021,24.0031133 51.9762016,24.4018692 C51.0474011,24.8006251 50.0257359,25 48.9111753,25 C47.4781687,25 46.2088272,24.6873438 45.1031122,24.0620221 C43.9973974,23.4367004 43.1349527,22.5712318 42.5157524,21.4655905 C41.8965521,20.3599492 41.5869565,19.1093245 41.5869565,17.7136788 C41.5869565,16.3180333 41.8832837,15.0674085 42.4759468,13.9617672 C43.0686101,12.8561259 43.882404,11.9951885 44.9173531,11.3789295 C45.9523023,10.7626704 47.1154968,10.4545455 48.4069718,10.4545455 C49.6984468,10.4545455 50.8572186,10.7626704 51.883322,11.3789295 C52.9094255,11.9951885 53.7143738,12.8515946 54.2981912,13.9481734 C54.8820087,15.044752 55.173913,16.299908 55.173913,17.7136788 L55.147376,18.3118097 Z M48.4069718,12.1129992 C47.0624226,12.1129992 45.9346102,12.5525303 45.0235012,13.4316058 C44.1123921,14.3106813 43.5949254,15.4570873 43.4710852,16.8708581 L53.3693954,16.8708581 C53.2455553,15.4570873 52.7280885,14.3106813 51.8169794,13.4316058 C50.9058704,12.5525303 49.7692125,12.1129992 48.4069718,12.1129992 Z" id="path-1" fill="#0865AC" fill-rule="nonzero"></path>
        <path d="M8.18697209,6 C7.94447325,6 7.74987547,6.20873294 7.75800151,6.4644534 C7.80889627,8.0019387 8.00905405,10.5302278 8.3589024,14.0506761 C6.95394898,13.2053529 4.73681706,12.21229 1.70750655,11.0710359 C1.4804045,10.9856451 1.22764119,11.1148608 1.15322356,11.3574789 L0.0211347737,15.0491606 C-0.0545659108,15.2967485 0.0797279648,15.5619569 0.317949894,15.6274682 C2.55518316,16.2473419 4.90917511,16.8107401 7.37992578,17.3158557 C6.40137677,18.2669009 4.80439168,20.178479 2.58768741,23.0519456 C2.43200916,23.2539014 2.46793492,23.555254 2.66809266,23.7070597 L5.56738616,25.9136652 C5.75770709,26.0582421 6.02372872,26.0171281 6.16144409,25.8169794 C7.24605956,24.240639 8.48891938,22.0430696 9.88959591,19.2233677 C11.3899236,21.9531608 12.7050627,24.1493748 13.8345853,25.8133649 C13.9710177,26.0157726 14.2366116,26.0591457 14.4286433,25.9159242 L17.379687,23.7075116 C17.5824108,23.5561576 17.619192,23.2507388 17.4613753,23.0478793 C15.3379069,20.3194415 13.6810456,18.408767 12.4907913,17.3158557 C14.8482047,17.0303163 17.2513807,16.4736951 19.7003193,15.6468958 C19.926566,15.5705411 20.0523061,15.3112062 19.9791716,15.0726543 L18.8376737,11.3511537 C18.7641114,11.1107945 18.515625,10.9802235 18.2889506,11.0606444 C15.74421,11.9692201 13.4744725,12.9550541 11.4805934,14.0181463 C11.8595245,11.0366989 12.0891927,8.51925304 12.1691703,6.4662606 C12.1790071,6.21008835 11.9831262,6 11.739772,6 L8.18697209,6 Z" id="path-3" fill="#054B81" fill-rule="nonzero"></path>
    </g>
</svg>