<?xml version="1.0" encoding="utf-8"?>
<!-- Generator: Adobe Illustrator 16.0.0, SVG Export Plug-In . SVG Version: 6.00 Build 0)  -->
<!DOCTYPE svg PUBLIC "-//W3C//DTD SVG 1.1//EN" "http://www.w3.org/Graphics/SVG/1.1/DTD/svg11.dtd">
<svg version="1.1" id="Layer_1" xmlns="http://www.w3.org/2000/svg" xmlns:xlink="http://www.w3.org/1999/xlink" x="0px" y="0px"
	 width="108px" height="108px" viewBox="0 0 108 108" enable-background="new 0 0 108 108" xml:space="preserve">
<g>
	<path fill="#FFFFFF" d="M54.357,53.911c-13.416,0-24.33-10.915-24.33-24.331c0-3.878,0.92-7.672,2.678-11.094
		c-2.114-1.609-3.394-4.12-3.394-6.886c0-4.784,3.893-8.676,8.676-8.676c3.021,0,5.779,1.589,7.34,4.061
		c2.866-1.153,5.895-1.735,9.029-1.735c2.921,0,5.757,0.508,8.455,1.511c1.584-2.359,4.26-3.837,7.199-3.837
		c4.784,0,8.678,3.893,8.678,8.676c0,2.521-1.072,4.849-2.896,6.469c1.898,3.528,2.896,7.467,2.896,11.51
		C78.688,42.996,67.773,53.911,54.357,53.911z M37.988,7.218c-2.417,0-4.383,1.966-4.383,4.383c0,1.822,1.101,3.425,2.806,4.084
		l2.442,0.945l-1.406,2.21c-2.045,3.212-3.126,6.926-3.126,10.74c0,11.048,8.987,20.037,20.036,20.037
		c11.049,0,20.038-8.988,20.038-20.037c0-3.909-1.131-7.7-3.27-10.963l-1.322-2.019l2.158-1.079c1.501-0.749,2.434-2.25,2.434-3.919
		c0-2.417-1.967-4.383-4.383-4.383c-1.882,0-3.55,1.2-4.15,2.985l-0.771,2.287l-2.181-1.031c-2.688-1.27-5.563-1.915-8.553-1.915
		c-3.202,0-6.268,0.738-9.111,2.193l-2.332,1.194L42.2,10.408C41.672,8.531,39.939,7.218,37.988,7.218z"/>
	<path fill="#FFFFFF" d="M65.449,27.702c0,1.729-1.401,3.131-3.131,3.131s-3.131-1.402-3.131-3.131s1.401-3.131,3.131-3.131
		S65.449,25.973,65.449,27.702z"/>
	<path fill="#FFFFFF" d="M55.986,35.842c0,0.77-0.811,1.394-1.808,1.394c-0.997,0-1.808-0.624-1.808-1.394
		c0-0.771,0.811-1.394,1.808-1.394C55.177,34.448,55.986,35.072,55.986,35.842z"/>
	<path fill="#FFFFFF" d="M48.275,27.702c0,1.729-1.402,3.131-3.131,3.131s-3.131-1.402-3.131-3.131s1.402-3.131,3.131-3.131
		S48.275,25.973,48.275,27.702z"/>
	<path fill="#FFFFFF" d="M30.476,73.615c-5.341,0-9.687-4.346-9.687-9.688c0-5.341,4.345-9.687,9.687-9.687
		c5.342,0,9.687,4.346,9.687,9.687C40.163,69.27,35.817,73.615,30.476,73.615z M30.476,58.536c-2.974,0-5.393,2.419-5.393,5.394
		c0,2.973,2.419,5.393,5.393,5.393s5.394-2.42,5.394-5.393C35.87,60.955,33.45,58.536,30.476,58.536z"/>
	<path fill="#FFFFFF" d="M77.523,73.615c-5.342,0-9.687-4.346-9.687-9.688c0-5.341,4.345-9.687,9.687-9.687s9.688,4.346,9.688,9.687
		C87.211,69.27,82.865,73.615,77.523,73.615z M77.523,58.536c-2.974,0-5.393,2.419-5.393,5.394c0,2.973,2.419,5.393,5.393,5.393
		c2.975,0,5.394-2.42,5.394-5.393C82.917,60.955,80.498,58.536,77.523,58.536z"/>
	<path fill="#FFFFFF" d="M26.092,105.075C19.976,105.075,15,100.1,15,93.982c0-6.116,4.976-11.092,11.092-11.092
		c6.116,0,11.092,4.977,11.092,11.092C37.184,100.1,32.208,105.075,26.092,105.075z M26.092,87.186
		c-3.749,0-6.798,3.051-6.798,6.799s3.05,6.799,6.798,6.799c3.748,0,6.798-3.051,6.798-6.799
		C32.89,90.234,29.84,87.186,26.092,87.186z"/>
	<path fill="#FFFFFF" d="M81.908,105.075c-6.116,0-11.092-4.976-11.092-11.093c0-6.115,4.976-11.092,11.092-11.092
		C88.023,82.891,93,87.867,93,93.982C93,100.1,88.023,105.075,81.908,105.075z M81.908,87.186c-3.748,0-6.799,3.051-6.799,6.799
		s3.051,6.799,6.799,6.799c3.749,0,6.798-3.051,6.798-6.799C88.706,90.234,85.657,87.186,81.908,87.186z"/>
	<path fill="#FFFFFF" d="M56.505,95.773h-4.294V62.855h4.294V95.773z"/>
	<path fill="#FFFFFF" d="M70.816,81.461H37.898v-4.293h32.918V81.461z"/>
</g>
</svg>
