<?xml version="1.0" encoding="utf-8"?>
<!-- Generator: Adobe Illustrator 16.0.0, SVG Export Plug-In . SVG Version: 6.00 Build 0)  -->
<!DOCTYPE svg PUBLIC "-//W3C//DTD SVG 1.1//EN" "http://www.w3.org/Graphics/SVG/1.1/DTD/svg11.dtd">
<svg version="1.1" id="Layer_1" xmlns="http://www.w3.org/2000/svg" xmlns:xlink="http://www.w3.org/1999/xlink" x="0px" y="0px"
	 width="108px" height="108px" viewBox="0 0 108 108" enable-background="new 0 0 108 108" xml:space="preserve">
<g>
	<path fill="#FFFFFF" d="M48.884,16.252c0,0-0.063,0.875-0.171,2.406c-0.093,1.53-0.242,3.707-0.457,6.304
		c-0.085,1.305-0.153,2.721-0.267,4.211c-0.109,1.489-0.225,3.06-0.344,4.684c-0.121,1.623-0.182,3.306-0.278,5.011
		c-0.107,1.701-0.216,3.431-0.325,5.159c-0.05,0.849-0.123,1.762-0.154,2.552c-0.037,0.867-0.075,1.732-0.113,2.59
		c-0.07,1.715-0.146,3.402-0.25,5.032c-0.092,1.631-0.197,3.217-0.244,4.68c-0.059,1.473-0.109,2.865-0.188,4.148
		c-0.071,1.285-0.139,2.463-0.17,3.507c-0.035,1.044-0.079,1.954-0.12,2.704c-0.066,1.472-0.105,2.312-0.105,2.312l-4.854,0.169
		c0,0-0.016-0.229-0.044-0.654c-0.025-0.424-0.082-1.062-0.089-1.827c-0.022-0.774-0.043-1.716-0.051-2.796
		c-0.032-1.082,0.005-2.297,0.054-3.625c0.035-1.327,0.105-2.764,0.176-4.284c0.04-1.532,0.209-3.095,0.355-4.723
		c0.14-1.628,0.315-3.308,0.5-5.015c0.09-0.853,0.182-1.713,0.273-2.577c0.097-0.941,0.256-1.756,0.381-2.642
		c0.269-1.736,0.537-3.473,0.802-5.182c0.292-1.704,0.544-3.385,0.851-5.002c0.34-1.61,0.667-3.168,0.979-4.645
		c0.307-1.476,0.636-2.864,0.918-4.147c0.648-2.561,1.221-4.68,1.633-6.158c0.451-1.467,0.708-2.305,0.708-2.305L48.884,16.252z"/>
	<path fill="#FFFFFF" d="M69.698,26.22c0,0,0.038,0.643,0.106,1.767c0.063,1.123,0.092,2.725,0.17,4.644
		c0.07,1.918,0.11,4.148,0.137,6.534c-0.004,1.19-0.006,2.421-0.008,3.671c0.006,1.25-0.037,2.515-0.059,3.781
		c-0.027,1.257-0.042,2.542-0.098,3.79c-0.055,1.248-0.072,2.48-0.152,3.666c-0.077,1.187-0.123,2.337-0.218,3.423
		c-0.091,1.082-0.16,2.117-0.282,3.074c-0.221,1.922-0.402,3.473-0.626,4.632c-0.096,0.571-0.188,1.019-0.252,1.321
		c-0.039,0.209-0.11,0.506-0.147,0.639c-0.043,0.15-0.064,0.229-0.064,0.229l-4.607-1.537c0.004-0.021-0.056,0.045-0.064-0.029
		c0.009-0.286,0.018-0.706,0.052-1.236c0.063-1.043,0.134-2.652,0.296-4.518c0.066-0.936,0.188-1.952,0.273-3.043
		c0.092-1.086,0.24-2.228,0.365-3.409c0.123-1.182,0.313-2.399,0.474-3.639c0.153-1.239,0.37-2.48,0.565-3.75
		c0.205-1.261,0.387-2.521,0.615-3.759c0.221-1.237,0.436-2.454,0.645-3.632c0.447-2.353,0.884-4.543,1.293-6.414
		c0.398-1.873,0.826-3.418,1.109-4.503C69.523,26.838,69.698,26.22,69.698,26.22z"/>
	<path fill="#FFFFFF" d="M89.219,64.343c-0.019-0.022-1.799-2.245-2.957-3.549c-0.767-0.862-3.658-1.496-9.279-0.44
		c-1.844,0.345-3.271,0.707-4.418,1c-3.828,0.973-5.697,1.309-9.93-0.939c-3.168-1.684-3.615-1.466-6.531-0.044
		c-0.453,0.221-0.941,0.46-1.481,0.71c-4.968,2.309-15.548,2.296-22.787-1.407c-4.954-2.537-12.591,3.729-12.667,3.793l-3.135-3.711
		c0.409-0.347,10.133-8.439,18.015-4.407c6.115,3.129,15.202,2.87,18.528,1.326c0.51-0.236,0.972-0.462,1.4-0.671
		c3.67-1.789,5.824-2.596,10.938,0.121c2.753,1.463,3.316,1.317,6.453,0.521c1.214-0.309,2.724-0.691,4.719-1.066
		c6.848-1.283,11.492-0.613,13.807,1.988c1.244,1.398,3.043,3.646,3.119,3.742L89.219,64.343z"/>
	<path fill="#FFFFFF" d="M53.71,91.861c-11.324,0.002-22.187-0.883-28.105-2.268c-5.048-1.18-8.584-3.693-10.512-7.471
		c-3.554-6.963-0.035-15.523,0.116-15.884l4.479,1.88l-2.239-0.939l2.242,0.936c-0.029,0.066-2.797,6.88-0.263,11.816
		c1.25,2.436,3.7,4.096,7.281,4.932c14.237,3.328,52.423,3.104,61.314-2.618c0.789-0.509,1.121-0.944,1.164-1.163
		c1.576-7.873-1.508-12.527-1.642-12.723l3.983-2.78c0.184,0.258,4.427,6.437,2.423,16.456c-0.331,1.652-1.44,3.099-3.3,4.295
		C84.462,90.314,68.686,91.861,53.71,91.861z"/>
	<path fill="#FFFFFF" d="M28.875,74.326c0,0.818-0.665,1.484-1.484,1.484c-0.82,0-1.485-0.666-1.485-1.484
		c0-0.82,0.665-1.485,1.485-1.485C28.21,72.841,28.875,73.506,28.875,74.326z"/>
	<path fill="#FFFFFF" d="M36.972,81.209c0,2.012-1.631,3.645-3.644,3.645c-2.013,0-3.644-1.633-3.644-3.645
		c0-2.014,1.631-3.645,3.644-3.645C35.341,77.564,36.972,79.195,36.972,81.209z"/>
	<path fill="#FFFFFF" d="M33.193,66.564c0,0.484-0.393,0.879-0.877,0.879c-0.485,0-0.878-0.395-0.878-0.879
		c0-0.483,0.393-0.877,0.878-0.877S33.193,66.081,33.193,66.564z"/>
	<path fill="#FFFFFF" d="M50.063,76.957c0,1.826-1.48,3.307-3.307,3.307c-1.827,0-3.307-1.479-3.307-3.307s1.48-3.307,3.307-3.307
		C48.583,73.65,50.063,75.131,50.063,76.957z"/>
	<path fill="#FFFFFF" d="M56.137,70.884c0,1.826-1.479,3.308-3.307,3.308s-3.307-1.48-3.307-3.308s1.48-3.306,3.307-3.306
		S56.137,69.059,56.137,70.884z"/>
	<path fill="#FFFFFF" d="M73.275,80.467c0,3.094-2.508,5.602-5.602,5.602c-3.093,0-5.601-2.508-5.601-5.602s2.508-5.602,5.601-5.602
		C70.77,74.865,73.275,77.373,73.275,80.467z"/>
	<path fill="#FFFFFF" d="M81.509,76.215c0,1.342-1.088,2.43-2.43,2.43c-1.343,0-2.429-1.088-2.429-2.43
		c0-1.341,1.086-2.429,2.429-2.429C80.421,73.786,81.509,74.874,81.509,76.215z"/>
	<path fill="#FFFFFF" d="M82.588,64.743c0,0.97-0.785,1.755-1.754,1.755s-1.755-0.785-1.755-1.755c0-0.968,0.786-1.755,1.755-1.755
		S82.588,63.775,82.588,64.743z"/>
</g>
</svg>
