<?xml version="1.0" encoding="utf-8"?>
<!-- Generator: Adobe Illustrator 16.0.0, SVG Export Plug-In . SVG Version: 6.00 Build 0)  -->
<!DOCTYPE svg PUBLIC "-//W3C//DTD SVG 1.1//EN" "http://www.w3.org/Graphics/SVG/1.1/DTD/svg11.dtd">
<svg version="1.1" id="Layer_1" xmlns="http://www.w3.org/2000/svg" xmlns:xlink="http://www.w3.org/1999/xlink" x="0px" y="0px"
	 width="108px" height="108px" viewBox="0 0 108 108" enable-background="new 0 0 108 108" xml:space="preserve">
<g>
	<path fill="#FFFFFF" d="M61.479,99.246c-0.434,0-0.842-0.07-1.215-0.211c-3.462-1.299-3.177-5.811-2.814-11.521
		c0.162-2.56,0.346-5.461,0.226-8.291c-0.192-4.51-2.132-8.418-3.628-10.797c-1.526,2.381-3.517,6.303-3.708,10.789
		c-0.119,2.829,0.064,5.729,0.226,8.289c0.361,5.708,0.646,10.217-2.814,11.516c-0.374,0.141-0.782,0.211-1.216,0.211
		c-3.685,0-11.36-6.148-15.388-10.305c-3.858-3.98-5.774-7.308-5.693-9.885c0.047-1.488,0.301-3.708,0.623-6.52
		c0.854-7.459,2.284-19.943-0.125-24.072c-8.085-13.861-9.123-24.316-3.083-31.075c6.952-7.78,15.815-8.62,19.302-8.62
		c2.342,0,4.529,0.359,6.16,1.012c2.717,1.086,4.604,1.947,5.692,2.47c1.083-0.525,2.956-1.387,5.665-2.47
		c1.61-0.645,3.688-0.985,6.004-0.985c7.301,0,14.574,3.263,19.457,8.727c6.024,6.74,4.988,17.173-3.082,31.008
		c-2.407,4.128-0.979,16.593-0.127,24.041c0.324,2.811,0.578,5.029,0.625,6.52c0.08,2.574-1.83,5.895-5.68,9.863
		C72.854,93.096,65.172,99.246,61.479,99.246z M54.08,60.88l1.751,1.989c0.252,0.287,6.169,7.107,6.554,16.152
		c0.131,3.08-0.061,6.112-0.229,8.789c-0.145,2.267-0.332,5.25-0.07,6.556c3.969-1.446,15.874-11.58,15.762-15.146
		c-0.039-1.294-0.297-3.535-0.595-6.13C75.956,61.777,75.037,51.2,77.99,46.138c6.924-11.87,8.148-20.445,3.641-25.489
		c-5.932-6.638-13.701-7.153-15.941-7.153c-1.674,0-3.225,0.236-4.254,0.648c-4.203,1.681-6.258,2.789-6.277,2.8L54.04,17.55
		l-1.122-0.598c-0.019-0.01-2.122-1.123-6.339-2.809c-1.072-0.429-2.68-0.675-4.41-0.675c-2.226,0-9.943,0.508-15.786,7.046
		c-4.523,5.063-3.299,13.661,3.64,25.557c2.955,5.064,2.034,15.656,0.737,26.988c-0.297,2.594-0.554,4.836-0.595,6.129
		c-0.112,3.564,11.793,13.709,15.763,15.16c0.261-1.306,0.072-4.285-0.07-6.549c-0.17-2.675-0.361-5.707-0.23-8.785
		c0.385-9.061,6.424-15.877,6.68-16.164L54.08,60.88z"/>
	<path fill="#FFFFFF" d="M35.226,25.686l-0.184-4.712l0.092,2.356l-0.129-2.354c0.032-0.002,3.243-0.26,11.082-3.791
		c3.558-1.603,5.286-2.827,6.812-3.907c2.126-1.507,3.964-2.809,8.958-4.136l1.211,4.558c-4.174,1.109-5.475,2.03-7.443,3.426
		c-1.616,1.145-3.626,2.569-7.601,4.359C39.277,25.424,35.615,25.671,35.226,25.686z"/>
	<path fill="#FFFFFF" d="M73.932,51.743c-3.223,0-5.752-1.295-5.896-1.368l2.17-4.188c0.028,0.016,3.024,1.505,5.817,0.491
		c1.738-0.63,3.14-2.161,4.166-4.55l4.332,1.862c-1.571,3.657-3.91,6.06-6.948,7.142C76.322,51.578,75.082,51.743,73.932,51.743z"/>
	<path fill="#FFFFFF" d="M34.292,54.28c-2.32,0-6.313-1.515-10.587-9.928l4.205-2.136c3.842,7.563,6.492,7.32,6.521,7.316
		c-0.003,0.001-0.074,0.015-0.229,0.086l1.996,4.273C35.899,54.031,35.233,54.28,34.292,54.28z"/>
</g>
</svg>
