<?xml version="1.0" encoding="utf-8"?>
<!-- Generator: Adobe Illustrator 16.0.0, SVG Export Plug-In . SVG Version: 6.00 Build 0)  -->
<!DOCTYPE svg PUBLIC "-//W3C//DTD SVG 1.1//EN" "http://www.w3.org/Graphics/SVG/1.1/DTD/svg11.dtd">
<svg version="1.1" id="Layer_2" xmlns="http://www.w3.org/2000/svg" xmlns:xlink="http://www.w3.org/1999/xlink" x="0px" y="0px"
	 width="94.902px" height="109.982px" viewBox="0 0 94.902 109.982" enable-background="new 0 0 94.902 109.982"
	 xml:space="preserve">
<g>
	<g>
		<path fill="#0369A5" d="M52.993,109.982c-14.289,0-28.573-5.438-39.451-16.315c-18.057-18.057-18.057-47.438,0-65.495
			c15.1-15.102,39.67-15.101,54.77-0.002c12.734,12.736,12.734,33.457,0,46.19c-3.277,3.277-8.591,3.277-11.867,0
			c-3.277-3.276-3.277-8.591,0-11.867c6.189-6.19,6.189-16.265,0-22.454c-8.557-8.556-22.479-8.557-31.035,0
			c-11.512,11.513-11.512,30.246,0,41.76c15.211,15.21,39.957,15.21,55.168-0.001c3.275-3.275,8.59-3.276,11.867,0.001
			s3.277,8.591,0,11.868C81.569,104.542,67.278,109.982,52.993,109.982z"/>
	</g>
	<g>
		<path fill="#04B1E7" d="M48.993,97.039c-19.531,0.003-35.935-15.323-37.025-35.061c-0.953-17.268,12.318-32.091,29.586-33.045
			c4.643-0.25,8.586,3.289,8.842,7.916c0.256,4.629-3.289,8.586-7.917,8.843c-8.026,0.443-14.195,7.334-13.753,15.36
			c0.619,11.188,10.222,19.789,21.412,19.171c15.14-0.836,26.776-13.835,25.94-28.976c-0.537-9.727-4.829-18.664-12.089-25.162
			c-7.258-6.499-16.609-9.785-26.338-9.244c-4.631,0.251-8.587-3.289-8.844-7.916c-0.255-4.629,3.289-8.587,7.918-8.843
			c14.2-0.784,27.862,4.011,38.459,13.499c10.6,9.489,16.867,22.537,17.652,36.741c1.346,24.382-17.395,45.311-41.774,46.658
			C50.37,97.021,49.679,97.039,48.993,97.039z"/>
	</g>
</g>
</svg>
