<?xml version="1.0" encoding="utf-8"?>
<!-- Generator: Adobe Illustrator 25.2.0, SVG Export Plug-In . SVG Version: 6.00 Build 0)  -->
<svg version="1.1" xmlns="http://www.w3.org/2000/svg" xmlns:xlink="http://www.w3.org/1999/xlink" x="0px" y="0px"
	 viewBox="0 0 1174.47 354.04" style="enable-background:new 0 0 1174.47 354.04;" xml:space="preserve">
<style type="text/css">
	.st0{fill:#D7EEF4;}
	.st1{fill:#3D3C3C;}
	.st2{fill:#FFFFFF;}
	.st3{fill:#0174BA;}
	.st4{fill:#33C5F3;}
	.st5{fill:#97BD58;}
	.st6{fill:#FBB24C;}
	.st7{fill:#EE3C49;}
	.st8{fill:#EFF2F3;}
	.st9{fill:#0098CC;}
	.st10{fill:#CED0D0;}
	.st11{fill:#353A40;}
	.st12{fill:#D8EFF4;}
	.st13{fill:#EB8936;}
	.st14{fill:#797979;}
	.st15{enable-background:new    ;}
	.st16{clip-path:url(#SVGID_2_);}
	.st17{fill:#D7EFF4;}
	.st18{fill:#F3B886;}
	.st19{fill:#2E2D2D;}
	.st20{fill:#E1EBF4;}
	.st21{fill:#D68751;}
	.st22{fill:#BDBDBD;}
	.st23{display:none;}
</style>
<g id="Layer_3">
</g>
<g id="Layer_1">
	<g>
		<circle class="st0" cx="198.18" cy="174.89" r="150"/>
		<g>
			<g>
				<path class="st1" d="M241.69,119.96c-0.07-22.45-23.91-19.61-22.26-19.91h-34.74h-34.74c1.64,0.3-22.19-2.54-22.26,19.91
					c-0.07,22.46-0.67,77.29,0,82.91s1.01,62.76,20.58,68.37h36.43h36.43c19.56-5.62,19.9-62.76,20.58-68.37
					C242.36,197.25,241.76,142.42,241.69,119.96z"/>
				<path class="st1" d="M281.31,232.58h-46.69c-2.87,0-5.19-2.32-5.19-5.19v-90.09c0-2.87,2.32-5.19,5.19-5.19h46.69
					c2.87,0,5.19,2.32,5.19,5.19v90.09C286.5,230.25,284.18,232.58,281.31,232.58z"/>
				<path class="st2" d="M285.07,226.74h-46.69c-2.87,0-5.19-2.32-5.19-5.19v-87.93c0-2.87,2.32-5.19,5.19-5.19h46.69
					c2.87,0,5.19,2.32,5.19,5.19v87.93C290.27,224.41,287.94,226.74,285.07,226.74z"/>
				<circle class="st3" cx="266.3" cy="155.09" r="9.84"/>
				<path class="st4" d="M243.14,114.43c-0.07-21.97-24.71-19.19-23.01-19.49h-35.92h-35.92c1.7,0.3-22.94-2.49-23.01,19.49
					c-0.07,21.98-0.7,75.63,0,81.12c0.7,5.49,1.05,61.41,21.27,66.9h37.66h37.66c20.22-5.49,20.57-61.41,21.27-66.9
					C243.83,190.06,243.21,136.41,243.14,114.43z"/>
				<path class="st3" d="M216.27,176.95h-65.62c-3.82,0-6.92-3.1-6.92-6.92v-33.3c0-3.82,3.1-6.92,6.92-6.92h65.62
					c3.82,0,6.92,3.1,6.92,6.92v33.3C223.19,173.85,220.09,176.95,216.27,176.95z"/>
				<g>
					<path class="st5" d="M161.82,202.71h-14.46c-2.01,0-3.64-1.63-3.64-3.64v-3.62c0-2.01,1.63-3.64,3.64-3.64h14.46
						c2.01,0,3.64,1.63,3.64,3.64v3.62C165.46,201.08,163.83,202.71,161.82,202.71z"/>
					<path class="st3" d="M161.82,220.17h-14.46c-2.01,0-3.64-1.63-3.64-3.64v-3.62c0-2.01,1.63-3.64,3.64-3.64h14.46
						c2.01,0,3.64,1.63,3.64,3.64v3.62C165.46,218.54,163.83,220.17,161.82,220.17z"/>
					<path class="st3" d="M161.82,237.63h-14.46c-2.01,0-3.64-1.63-3.64-3.64v-3.62c0-2.01,1.63-3.64,3.64-3.64h14.46
						c2.01,0,3.64,1.63,3.64,3.64v3.62C165.46,236,163.83,237.63,161.82,237.63z"/>
					<path class="st3" d="M190.69,202.71h-14.46c-2.01,0-3.64-1.63-3.64-3.64v-3.62c0-2.01,1.63-3.64,3.64-3.64h14.46
						c2.01,0,3.64,1.63,3.64,3.64v3.62C194.33,201.08,192.7,202.71,190.69,202.71z"/>
					<path class="st3" d="M190.69,220.17h-14.46c-2.01,0-3.64-1.63-3.64-3.64v-3.62c0-2.01,1.63-3.64,3.64-3.64h14.46
						c2.01,0,3.64,1.63,3.64,3.64v3.62C194.33,218.54,192.7,220.17,190.69,220.17z"/>
					<path class="st6" d="M190.69,237.63h-14.46c-2.01,0-3.64-1.63-3.64-3.64v-3.62c0-2.01,1.63-3.64,3.64-3.64h14.46
						c2.01,0,3.64,1.63,3.64,3.64v3.62C194.33,236,192.7,237.63,190.69,237.63z"/>
					<path class="st3" d="M219.55,202.71h-14.46c-2.01,0-3.64-1.63-3.64-3.64v-3.62c0-2.01,1.63-3.64,3.64-3.64h14.46
						c2.01,0,3.64,1.63,3.64,3.64v3.62C223.19,201.08,221.56,202.71,219.55,202.71z"/>
					<path class="st7" d="M219.55,220.17h-14.46c-2.01,0-3.64-1.63-3.64-3.64v-3.62c0-2.01,1.63-3.64,3.64-3.64h14.46
						c2.01,0,3.64,1.63,3.64,3.64v3.62C223.19,218.54,221.56,220.17,219.55,220.17z"/>
					<path class="st3" d="M219.55,237.63h-14.46c-2.01,0-3.64-1.63-3.64-3.64v-3.62c0-2.01,1.63-3.64,3.64-3.64h14.46
						c2.01,0,3.64,1.63,3.64,3.64v3.62C223.19,236,221.56,237.63,219.55,237.63z"/>
				</g>
				<circle class="st7" cx="266.3" cy="168.86" r="9.84"/>
				<path class="st3" d="M267.24,216.8h-1.37c-1.48,0-2.68-1.2-2.68-2.68v-19.63c0-1.48,1.2-2.68,2.68-2.68h1.37
					c1.48,0,2.68,1.2,2.68,2.68v19.63C269.92,215.6,268.72,216.8,267.24,216.8z"/>
				<path class="st3" d="M254.01,207.13h-1.37c-1.48,0-2.68-1.2-2.68-2.68v-9.96c0-1.48,1.2-2.68,2.68-2.68h1.37
					c1.48,0,2.68,1.2,2.68,2.68v9.96C256.69,205.93,255.49,207.13,254.01,207.13z"/>
				<path class="st2" d="M146.88,110.36V83.09c0-2.51,2.26-4.55,5.05-4.55h62.48c2.79,0,5.05,2.04,5.05,4.55v27.27
					c0,2.51-2.26,4.55-5.05,4.55h-62.48C149.14,114.91,146.88,112.87,146.88,110.36z"/>
				<path class="st1" d="M223.42,116.32h-80.6c-2.01,0-3.64-1.63-3.64-3.64v-1.86c0-2.01,1.63-3.64,3.64-3.64h80.6
					c2.01,0,3.64,1.63,3.64,3.64v1.86C227.06,114.69,225.43,116.32,223.42,116.32z"/>
			</g>
			<g>
				<circle class="st5" cx="242" cy="240.63" r="30.61"/>
				<path class="st2" d="M255.69,228.42l-17.23,16.44c-1.09,1.04-2.88,0.95-3.99-0.22l-6.19-6.49c-1.11-1.16-2.89-1.26-3.99-0.22
					l0,0c-1.09,1.04-1.08,2.83,0.03,3.99l10.21,10.7c1.11,1.16,2.89,1.26,3.99,0.22l1.98-1.89l19.21-18.32
					c1.09-1.04,1.08-2.83-0.03-3.99v0C258.57,227.47,256.78,227.37,255.69,228.42z"/>
			</g>
		</g>
	</g>
	<g>
		<circle class="st0" cx="568.43" cy="177.58" r="150"/>
		<g>
			<g>
				
					<rect x="566.11" y="142.23" transform="matrix(5.705795e-03 -1 1 5.705795e-03 319.2253 812.9775)" class="st8" width="4.63" height="207.47"/>
				<path class="st1" d="M632.79,121.16c9.29,0.05,16.77,7.62,16.72,16.91l-0.46,79.81c-0.05,9.29-7.62,16.77-16.91,16.72
					l-133.52-0.76c-9.29-0.05-16.77-7.62-16.72-16.91l0.46-79.81c0.05-9.29,7.62-16.77,16.91-16.72"/>
				<path class="st1" d="M481.92,212.4l-0.07,12.44c-0.05,8.07,7.44,14.65,16.73,14.7l133.52,0.76c9.29,0.05,16.85-6.44,16.9-14.51
					l0.07-12.44L481.92,212.4z"/>
				<path class="st9" d="M628.69,231.88l-126.59-0.72c-8.71-0.05-15.74-7.15-15.69-15.87l0.42-74.03
					c0.05-8.71,7.15-15.74,15.87-15.69l126.59,0.72c8.71,0.05,15.74,7.15,15.69,15.87l-0.42,74.03
					C644.51,224.9,637.4,231.93,628.69,231.88z"/>
				<polygon class="st1" points="642.16,233.6 487.96,232.72 484.95,219.11 646.16,220.03 				"/>
				<polygon class="st1" points="649.08,223.7 565.46,227.47 481.89,222.75 464.71,243.06 565.32,243.63 565.42,243.63 
					672.17,244.24 				"/>
			</g>
			<g>
				<path class="st2" d="M603.17,106.59l-52.03-0.3l-7.43,19.75l-11.88-0.07l-0.49,86.68c-0.02,3.71,2.93,6.73,6.6,6.75l64.59,0.37
					c3.67,0.02,6.65-2.97,6.67-6.68l0.57-99.76C609.79,109.63,606.84,106.61,603.17,106.59z"/>
				<path class="st10" d="M531.83,125.74l14.62,0.08c0,0,4.5-0.24,4.62-4.53s0.09-15.01,0.09-15.01L531.83,125.74z"/>
				<path class="st3" d="M610.54,203.78c-7.28-0.04-13.14-5.97-13.1-13.25c0.04-6.85,5.29-12.44,11.98-13.04l0.07-11.43
					c-12.99,0.59-23.37,11.26-23.45,24.41c-0.08,13.57,10.86,24.64,24.44,24.72c13.57,0.08,24.64-10.86,24.72-24.44l-11.4-0.07
					C623.75,197.96,617.82,203.82,610.54,203.78z"/>
				<path class="st7" d="M623.79,190.68c-0.04,7.28-5.97,13.14-13.25,13.1c-7.28-0.04-13.14-5.97-13.1-13.25l-11.4-0.07
					c-0.08,13.57,10.86,24.64,24.44,24.72c13.57,0.08,24.64-10.86,24.72-24.44L623.79,190.68z"/>
				<path class="st6" d="M609.4,177.34c0.42-0.04,0.84-0.06,1.27-0.06c7.28,0.04,13.14,5.97,13.1,13.25l11.4,0.07
					c0.08-13.57-10.86-24.64-24.44-24.72c-0.43,0-0.85,0.01-1.27,0.03L609.4,177.34z"/>
				<path class="st4" d="M545.87,182.5l-1.86-0.01c-1.15-0.01-2.07-0.94-2.06-2.09l0.01-1.86c0.01-1.15,0.94-2.07,2.09-2.06
					l1.86,0.01c1.15,0.01,2.07,0.94,2.06,2.09l-0.01,1.86C547.95,181.59,547.02,182.51,545.87,182.5z"/>
				<path class="st9" d="M575.83,181.38l-23.91-0.14c-0.94-0.01-1.7-0.77-1.69-1.71l0,0c0.01-0.94,0.77-1.7,1.71-1.69l23.91,0.14
					c0.94,0.01,1.7,0.77,1.69,1.71l0,0C577.54,180.62,576.77,181.38,575.83,181.38z"/>
				<path class="st4" d="M545.92,173.69l-1.86-0.01c-1.15-0.01-2.07-0.94-2.06-2.09l0.01-1.86c0.01-1.15,0.94-2.07,2.09-2.06
					l1.86,0.01c1.15,0.01,2.07,0.94,2.06,2.09l-0.01,1.86C548,172.77,547.07,173.7,545.92,173.69z"/>
				<path class="st9" d="M581.66,172.37l-29.91-0.17c-0.82,0-1.48-0.67-1.47-1.49l0,0c0-0.82,0.67-1.48,1.49-1.47l29.91,0.17
					c0.82,0,1.48,0.67,1.47,1.49l0,0C583.15,171.72,582.48,172.38,581.66,172.37z"/>
				<path class="st4" d="M545.82,191.56l-1.86-0.01c-1.15-0.01-2.07-0.94-2.06-2.09l0.01-1.86c0.01-1.15,0.94-2.07,2.09-2.06
					l1.86,0.01c1.15,0.01,2.07,0.94,2.06,2.09l-0.01,1.86C547.9,190.65,546.97,191.57,545.82,191.56z"/>
				<path class="st9" d="M573.35,190.42l-21.49-0.12c-0.94-0.01-1.7-0.77-1.69-1.71l0,0c0.01-0.94,0.77-1.7,1.71-1.69l21.49,0.12
					c0.94,0.01,1.7,0.77,1.69,1.71v0C575.06,189.67,574.3,190.43,573.35,190.42z"/>
				<path class="st4" d="M545.77,200.62l-1.86-0.01c-1.15-0.01-2.07-0.94-2.06-2.09l0.01-1.86c0.01-1.15,0.94-2.07,2.09-2.06
					l1.86,0.01c1.15,0.01,2.07,0.94,2.06,2.09l-0.01,1.86C547.85,199.71,546.91,200.63,545.77,200.62z"/>
				<path class="st9" d="M575.72,199.5l-23.91-0.14c-0.94-0.01-1.7-0.77-1.69-1.71l0,0c0.01-0.94,0.77-1.7,1.71-1.69l23.91,0.14
					c0.94,0.01,1.7,0.77,1.69,1.71l0,0C577.43,198.74,576.67,199.5,575.72,199.5z"/>
				<path class="st7" d="M573.71,153.36l-1.88-0.01c-1.14-0.01-2.06-0.94-2.06-2.08l0.16-28.26c0.01-1.14,0.94-2.06,2.08-2.06
					l1.88,0.01c1.14,0.01,2.06,0.94,2.06,2.08l-0.16,28.26C575.79,152.44,574.86,153.36,573.71,153.36z"/>
				<path class="st6" d="M585.9,152.75l-2.92-0.02c-0.85,0-1.54-0.7-1.54-1.55l0.09-15.02c0-0.85,0.7-1.54,1.55-1.54l2.92,0.02
					c0.85,0,1.54,0.7,1.54,1.55l-0.09,15.02C587.45,152.07,586.76,152.76,585.9,152.75z"/>
				<path class="st9" d="M594.8,155.78l-42.31-0.24c-1.18-0.01-2.12-0.97-2.12-2.14l0,0c0.01-1.18,0.97-2.12,2.14-2.12l42.31,0.24
					c1.18,0.01,2.12,0.97,2.12,2.14l0,0C596.93,154.84,595.97,155.79,594.8,155.78z"/>
				<path class="st9" d="M563.72,153.3l-2.86-0.02c-0.87,0-1.57-0.71-1.57-1.58l0.09-15.64c0-0.87,0.71-1.57,1.58-1.57l2.86,0.02
					c0.87,0,1.57,0.71,1.57,1.58l-0.09,15.64C565.29,152.6,564.59,153.3,563.72,153.3z"/>
			</g>
			<polygon class="st2" points="529.22,169.08 524.52,185.13 516.69,170.75 515.21,168.04 513.75,170.76 510.55,176.71 
				495.93,178.19 511.6,179.95 512.55,180.05 513.08,179.07 515.23,175.05 523.52,190.28 525.45,193.83 526.59,189.95 529.15,181.2 
							"/>
		</g>
	</g>
	<g>
		<g>
			<circle class="st0" cx="943.15" cy="179.5" r="150"/>
		</g>
		<g>
			<g>
				<path class="st11" d="M983.3,280.92H903c-13.83,0-25.04-11.21-25.04-25.04V103.11c0-13.83,11.21-25.04,25.04-25.04h80.3
					c13.83,0,25.04,11.21,25.04,25.04v152.78C1008.33,269.71,997.13,280.92,983.3,280.92z"/>
				<path class="st2" d="M981.13,86.48h-75.95c-10.33,0-18.7,8.7-18.7,19.44v115.39v11.67v21.53h113.36v-21.53v-11.67V105.92
					C999.83,95.18,991.46,86.48,981.13,86.48z"/>
				<path class="st2" d="M962.14,273.02h-37.98c-2.24,0-4.05-1.82-4.05-4.05v-1.48c0-2.24,1.82-4.05,4.05-4.05h37.98
					c2.24,0,4.05,1.82,4.05,4.05v1.48C966.19,271.2,964.38,273.02,962.14,273.02z"/>
			</g>
			<g>
				<polygon class="st4" points="957.68,190.9 928.99,177.77 957.32,164.48 986,176.98 				"/>
				<polygon class="st6" points="958.14,224.06 986.45,209.39 986,176.98 957.68,190.9 				"/>
				<polygon class="st9" points="940.64,183.11 969.11,169.62 974.88,172.14 946.49,185.78 				"/>
				<polygon class="st4" points="928.54,144.63 899.85,131.5 928.18,118.69 956.85,130.71 				"/>
				<polygon class="st1" points="928.54,144.63 929,177.78 900.29,163.27 899.85,131.5 				"/>
				<polygon class="st6" points="929,177.78 957.32,164.48 956.85,130.71 928.54,144.63 				"/>
				<polygon class="st9" points="911.5,136.83 939.91,123.61 945.53,125.96 917.35,139.51 				"/>
				<polygon class="st1" points="957.68,190.9 958.14,224.06 929.43,209.54 928.99,177.77 				"/>
			</g>
		</g>
	</g>
</g>
<g id="Layer_2" class="st23">
</g>
</svg>
