<svg width="512" height="512" viewBox="0 0 512 512" fill="none" xmlns="http://www.w3.org/2000/svg">
<g clip-path="url(#clip0_432_60626)">
<path d="M276.45 458.504C223.865 458.504 171.28 438.501 131.186 398.407C64.7116 331.933 64.7116 223.793 131.186 157.319C186.741 101.764 277.236 101.764 332.791 157.319C379.699 204.226 379.699 280.483 332.791 327.391C320.737 339.445 301.17 339.445 289.116 327.391C277.062 315.336 277.062 295.77 289.116 283.715C311.915 260.917 311.915 223.88 289.116 201.081C257.582 169.548 206.395 169.548 174.861 201.081C132.496 243.447 132.496 312.454 174.861 354.819C230.853 410.811 321.96 410.811 377.952 354.819C390.006 342.765 409.573 342.765 421.627 354.819C433.682 366.873 433.682 386.44 421.627 398.494C381.621 438.501 329.035 458.504 276.45 458.504Z" fill="#0099CC"/>
<path d="M261.774 410.808C189.884 410.808 129.525 354.379 125.507 281.703C122.013 218.112 170.842 163.605 234.433 160.023C251.554 159.062 266.054 172.165 267.015 189.199C267.976 206.232 254.873 220.82 237.84 221.78C208.315 223.44 185.604 248.772 187.176 278.296C189.448 319.439 224.825 351.147 265.967 348.876C321.697 345.819 364.499 297.95 361.441 242.221C359.432 206.407 343.622 173.475 316.98 149.629C290.25 125.694 255.834 113.64 220.02 115.562C202.987 116.523 188.399 103.42 187.439 86.3866C186.478 69.3532 199.58 54.7656 216.614 53.8047C268.85 50.9221 319.164 68.567 358.209 103.507C397.255 138.448 420.316 186.491 423.199 238.726C428.178 328.436 359.17 405.479 269.461 410.458C266.84 410.808 264.307 410.808 261.774 410.808Z" fill="#00CCFF"/>
</g>
<defs>
<clipPath id="clip0_432_60626">
<rect width="405" height="405" fill="white" transform="translate(53.5 53.5)"/>
</clipPath>
</defs>
</svg>
