<?xml version="1.0" encoding="utf-8"?>
<!-- Generator: Adobe Illustrator 16.0.0, SVG Export Plug-In . SVG Version: 6.00 Build 0)  -->
<!DOCTYPE svg PUBLIC "-//W3C//DTD SVG 1.1//EN" "http://www.w3.org/Graphics/SVG/1.1/DTD/svg11.dtd">
<svg version="1.1" id="Layer_1" xmlns="http://www.w3.org/2000/svg" xmlns:xlink="http://www.w3.org/1999/xlink" x="0px" y="0px"
	 width="16px" height="16px" viewBox="0 0 16 16" enable-background="new 0 0 16 16" xml:space="preserve">
<g id="New_Symbol">
	<g>
		<path fill="#0099CC" d="M8.737,15.91c-2.055,0.003-4.111-0.777-5.678-2.341c-2.6-2.595-2.604-6.822-0.01-9.422
			c2.17-2.175,5.705-2.178,7.879-0.009c1.834,1.831,1.837,4.812,0.007,6.646c-0.471,0.472-1.235,0.473-1.707,0.001
			C8.757,10.314,8.756,9.55,9.227,9.078c0.89-0.891,0.889-2.34-0.003-3.23C7.991,4.619,5.989,4.621,4.759,5.853
			c-1.654,1.658-1.651,4.353,0.006,6.007c2.19,2.186,5.75,2.182,7.936-0.009c0.471-0.472,1.235-0.473,1.708-0.001
			c0.472,0.471,0.473,1.235,0.001,1.707C12.848,15.124,10.793,15.908,8.737,15.91z"/>
	</g>
	<g>
		<path fill="#00CCFF" d="M8.16,14.049c-2.81,0.004-5.172-2.198-5.332-5.038C2.689,6.527,4.596,4.393,7.08,4.253
			C7.748,4.216,8.315,4.725,8.353,5.39c0.038,0.666-0.472,1.236-1.138,1.273C6.061,6.729,5.174,7.721,5.239,8.875
			c0.091,1.609,1.473,2.846,3.083,2.755c2.178-0.122,3.85-1.994,3.728-4.172c-0.079-1.399-0.697-2.684-1.743-3.618
			c-1.045-0.934-2.391-1.405-3.79-1.326C5.851,2.551,5.281,2.042,5.243,1.376C5.206,0.71,5.715,0.141,6.381,0.103
			c2.043-0.115,4.009,0.573,5.535,1.936c1.526,1.364,2.43,3.24,2.545,5.283c0.197,3.507-2.496,6.521-6.003,6.719
			C8.358,14.047,8.259,14.049,8.16,14.049z"/>
	</g>
</g>
</svg>
